<svg xmlns="http://www.w3.org/2000/svg" xmlns:xlink="http://www.w3.org/1999/xlink" viewBox="0,0,256,256" width="100px" height="100px"><g fill="none" fill-rule="nonzero" stroke="none" stroke-width="1" stroke-linecap="butt" stroke-linejoin="miter" stroke-miterlimit="10" stroke-dasharray="" stroke-dashoffset="0" font-family="none" font-weight="none" font-size="none" text-anchor="none" style="mix-blend-mode: normal"><g transform="scale(2.56,2.56)"><path d="M87.215,56.71c1.135,-2.155 1.785,-4.605 1.785,-7.21c0,-6.621 -4.159,-12.257 -10.001,-14.478c0,-0.007 0.001,-0.014 0.001,-0.022c0,-11.598 -9.402,-21 -21,-21c-9.784,0 -17.981,6.701 -20.313,15.757c-1.476,-0.485 -3.049,-0.757 -4.687,-0.757c-7.692,0 -14.023,5.793 -14.89,13.252c-5.204,1.101 -9.11,5.717 -9.11,11.248c0,6.351 5.149,11.5 11.5,11.5c0.177,0 0.352,-0.012 0.526,-0.022c-0.004,0.175 -0.026,0.346 -0.026,0.522c0,11.322 9.178,20.5 20.5,20.5c6.437,0 12.175,-2.972 15.934,-7.614c2.178,2.225 5.206,3.614 8.566,3.614c4.65,0 8.674,-2.65 10.666,-6.518c1.052,0.335 2.171,0.518 3.334,0.518c6.075,0 11,-4.925 11,-11c0,-3.311 -1.47,-6.273 -3.785,-8.29z" fill="#46796f"></path><path d="M77.5,60.5v0.5h3v-0.5c0,0 4.242,0 5.5,0c2.485,0 4.5,-2.015 4.5,-4.5c0,-2.333 -1.782,-4.229 -4.055,-4.455c0.022,-0.181 0.055,-0.358 0.055,-0.545c0,-2.485 -2.015,-4.5 -4.5,-4.5c-1.438,0 -2.703,0.686 -3.527,1.736c-0.14,-2.636 -2.302,-4.736 -4.973,-4.736c-2.761,0 -5,2.239 -5,5c0,0.446 0.077,0.87 0.187,1.282c-0.642,-0.777 -1.601,-1.282 -2.687,-1.282c-1.781,0 -3.234,1.335 -3.455,3.055c-0.181,-0.022 -0.358,-0.055 -0.545,-0.055c-2.485,0 -4.5,2.015 -4.5,4.5c0,2.485 2.015,4.5 4.5,4.5c2.485,0 9.5,0 9.5,0z" fill="#fdfcef"></path><path d="M73.5,43c-3.033,0 -5.5,2.467 -5.5,5.5c0,0.016 0,0.031 0,0.047c-0.602,-0.355 -1.29,-0.547 -2,-0.547c-1.831,0 -3.411,1.261 -3.858,3.005c-0.047,-0.003 -0.094,-0.005 -0.142,-0.005c-2.757,0 -5,2.243 -5,5c0,2.757 2.243,5 5,5h15.5c0.276,0 0.5,-0.224 0.5,-0.5c0,-0.276 -0.224,-0.5 -0.5,-0.5h-15.5c-2.206,0 -4,-1.794 -4,-4c0,-2.206 1.794,-4 4,-4c0.117,0 0.23,0.017 0.343,0.032l0.141,0.019c0.021,0.003 0.041,0.004 0.062,0.004c0.246,0 0.462,-0.185 0.495,-0.437c0.191,-1.493 1.463,-2.618 2.959,-2.618c0.885,0 1.723,0.401 2.301,1.1c0.098,0.118 0.241,0.182 0.386,0.182c0.078,0 0.156,-0.018 0.228,-0.056c0.209,-0.107 0.314,-0.346 0.254,-0.573c-0.115,-0.435 -0.169,-0.801 -0.169,-1.153c0,-2.481 2.019,-4.5 4.5,-4.5c2.381,0 4.347,1.872 4.474,4.263c0.011,0.208 0.15,0.387 0.349,0.45c0.05,0.016 0.101,0.024 0.152,0.024c0.15,0 0.296,-0.069 0.392,-0.192c0.771,-0.982 1.912,-1.545 3.133,-1.545c2.206,0 4,1.794 4,4c0,0.117 -0.017,0.23 -0.032,0.343l-0.019,0.141c-0.016,0.134 0.022,0.268 0.106,0.373c0.084,0.105 0.207,0.172 0.34,0.185c2.056,0.205 3.605,1.907 3.605,3.958c0,2.206 -1.794,4 -4,4h-5.5c-0.276,0 -0.5,0.224 -0.5,0.5c0,0.276 0.224,0.5 0.5,0.5h5.5c2.757,0 5,-2.243 5,-5c0,-2.397 -1.689,-4.413 -4.003,-4.877c0.002,-0.041 0.003,-0.082 0.003,-0.123c0,-2.757 -2.243,-5 -5,-5c-1.176,0 -2.293,0.416 -3.183,1.164c-0.598,-2.404 -2.762,-4.164 -5.317,-4.164z" fill="#472b29"></path><path d="M72,50c-1.403,0 -2.609,0.999 -2.913,2.341c-0.367,-0.222 -0.786,-0.341 -1.212,-0.341c-1.202,0 -2.198,0.897 -2.353,2.068c-0.203,-0.046 -0.396,-0.068 -0.584,-0.068c-1.529,0 -2.811,1.2 -2.918,2.732c-0.01,0.138 0.094,0.258 0.231,0.268c0.006,0 0.012,0 0.018,0c0.13,0 0.24,-0.101 0.249,-0.232c0.089,-1.271 1.151,-2.268 2.419,-2.268c0.229,0 0.47,0.042 0.738,0.127c0.022,0.007 0.045,0.01 0.067,0.01c0.055,0 0.11,-0.02 0.156,-0.054c0.064,-0.046 0.102,-0.128 0.102,-0.208c0,-1.034 0.841,-1.875 1.875,-1.875c0.447,0 0.885,0.168 1.231,0.473c0.047,0.041 0.106,0.063 0.165,0.063c0.032,0 0.063,-0.006 0.093,-0.019c0.088,-0.035 0.148,-0.117 0.155,-0.212c0.104,-1.293 1.193,-2.305 2.481,-2.305c0.208,0 0.425,0.034 0.682,0.107c0.023,0.007 0.047,0.01 0.07,0.01c0.109,0 0.207,-0.073 0.239,-0.182c0.038,-0.133 -0.039,-0.271 -0.172,-0.309c-0.302,-0.086 -0.563,-0.126 -0.819,-0.126zM85.883,51.5c-1.326,0 -2.508,0.897 -2.874,2.182c-0.038,0.133 0.039,0.271 0.172,0.309c0.024,0.006 0.047,0.009 0.069,0.009c0.109,0 0.209,-0.072 0.24,-0.182c0.305,-1.07 1.289,-1.818 2.393,-1.818c0.117,0 0.23,0.014 0.342,0.029c0.012,0.002 0.023,0.003 0.035,0.003c0.121,0 0.229,-0.092 0.246,-0.217c0.019,-0.137 -0.077,-0.263 -0.214,-0.281c-0.134,-0.018 -0.27,-0.034 -0.409,-0.034z" fill="#472b29"></path><path d="M15.5,51h-10c-0.276,0 -0.5,-0.224 -0.5,-0.5c0,-0.276 0.224,-0.5 0.5,-0.5h10c0.276,0 0.5,0.224 0.5,0.5c0,0.276 -0.223,0.5 -0.5,0.5zM18.5,51h-1c-0.276,0 -0.5,-0.224 -0.5,-0.5c0,-0.276 0.224,-0.5 0.5,-0.5h1c0.276,0 0.5,0.224 0.5,0.5c0,0.276 -0.223,0.5 -0.5,0.5zM23.491,53h-8.991c-0.276,0 -0.5,-0.224 -0.5,-0.5c0,-0.276 0.224,-0.5 0.5,-0.5h8.991c0.276,0 0.5,0.224 0.5,0.5c0,0.276 -0.224,0.5 -0.5,0.5zM12.5,53h-1c-0.276,0 -0.5,-0.224 -0.5,-0.5c0,-0.276 0.224,-0.5 0.5,-0.5h1c0.276,0 0.5,0.224 0.5,0.5c0,0.276 -0.223,0.5 -0.5,0.5zM9.5,53h-2c-0.276,0 -0.5,-0.224 -0.5,-0.5c0,-0.276 0.224,-0.5 0.5,-0.5h2c0.276,0 0.5,0.224 0.5,0.5c0,0.276 -0.223,0.5 -0.5,0.5zM15.5,55h-2c-0.276,0 -0.5,-0.224 -0.5,-0.5c0,-0.276 0.224,-0.5 0.5,-0.5h2c0.276,0 0.5,0.224 0.5,0.5c0,0.276 -0.224,0.5 -0.5,0.5zM18.5,46c-0.177,0 -0.823,0 -1,0c-0.276,0 -0.5,0.224 -0.5,0.5c0,0.276 0.224,0.5 0.5,0.5c0.177,0 0.823,0 1,0c0.276,0 0.5,-0.224 0.5,-0.5c0,-0.276 -0.224,-0.5 -0.5,-0.5zM18.5,48c-0.177,0 -4.823,0 -5,0c-0.276,0 -0.5,0.224 -0.5,0.5c0,0.276 0.224,0.5 0.5,0.5c0.177,0 4.823,0 5,0c0.276,0 0.5,-0.224 0.5,-0.5c0,-0.276 -0.224,-0.5 -0.5,-0.5zM23.5,50c-0.177,0 -2.823,0 -3,0c-0.276,0 -0.5,0.224 -0.5,0.5c0,0.276 0.224,0.5 0.5,0.5c0.177,0 2.823,0 3,0c0.276,0 0.5,-0.224 0.5,-0.5c0,-0.276 -0.224,-0.5 -0.5,-0.5z" fill="#ffffff"></path><g fill="#ffffff"><path d="M72.5,24h-10c-0.276,0 -0.5,-0.224 -0.5,-0.5c0,-0.276 0.224,-0.5 0.5,-0.5h10c0.276,0 0.5,0.224 0.5,0.5c0,0.276 -0.224,0.5 -0.5,0.5zM76.5,24h-2c-0.276,0 -0.5,-0.224 -0.5,-0.5c0,-0.276 0.224,-0.5 0.5,-0.5h2c0.276,0 0.5,0.224 0.5,0.5c0,0.276 -0.224,0.5 -0.5,0.5zM81.5,26h-10c-0.276,0 -0.5,-0.224 -0.5,-0.5c0,-0.276 0.224,-0.5 0.5,-0.5h10c0.276,0 0.5,0.224 0.5,0.5c0,0.276 -0.223,0.5 -0.5,0.5zM69.5,26h-1c-0.276,0 -0.5,-0.224 -0.5,-0.5c0,-0.276 0.224,-0.5 0.5,-0.5h1c0.276,0 0.5,0.224 0.5,0.5c0,0.276 -0.224,0.5 -0.5,0.5zM66.47,26h-1.97c-0.276,0 -0.5,-0.224 -0.5,-0.5c0,-0.276 0.224,-0.5 0.5,-0.5h1.97c0.276,0 0.5,0.224 0.5,0.5c0,0.276 -0.224,0.5 -0.5,0.5zM75.5,22h-5c-0.276,0 -0.5,-0.224 -0.5,-0.5c0,-0.276 0.224,-0.5 0.5,-0.5h5c0.276,0 0.5,0.224 0.5,0.5c0,0.276 -0.223,0.5 -0.5,0.5zM72.5,28h-2c-0.276,0 -0.5,-0.224 -0.5,-0.5c0,-0.276 0.224,-0.5 0.5,-0.5h2c0.276,0 0.5,0.224 0.5,0.5c0,0.276 -0.224,0.5 -0.5,0.5z"></path></g><g><path d="M52,26.75c-12.84062,0 -23.25,10.40938 -23.25,23.25c0,12.84062 10.40938,23.25 23.25,23.25c12.84062,0 23.25,-10.40938 23.25,-23.25c0,-12.84062 -10.40938,-23.25 -23.25,-23.25z" fill="#48bed8"></path><path d="M52,73.95c-13.206,0 -23.95,-10.744 -23.95,-23.95c0,-13.206 10.744,-23.95 23.95,-23.95c13.206,0 23.95,10.744 23.95,23.95c0,13.206 -10.744,23.95 -23.95,23.95zM52,27.45c-12.434,0 -22.55,10.115 -22.55,22.55c0,12.435 10.116,22.55 22.55,22.55c12.434,0 22.55,-10.115 22.55,-22.55c0,-12.435 -10.116,-22.55 -22.55,-22.55z" fill="#472b29"></path></g><g fill="#472b29"><path d="M70.623,44.987c-0.214,0 -0.412,-0.138 -0.478,-0.353c-0.084,-0.275 -0.175,-0.548 -0.271,-0.816c-0.375,-1.048 -0.849,-2.069 -1.408,-3.036c-0.139,-0.239 -0.057,-0.545 0.182,-0.683c0.24,-0.14 0.545,-0.057 0.683,0.183c0.589,1.019 1.088,2.095 1.483,3.197c0.102,0.283 0.197,0.571 0.287,0.86c0.081,0.265 -0.067,0.544 -0.331,0.625c-0.049,0.016 -0.099,0.023 -0.147,0.023z"></path></g><g fill="#472b29"><path d="M52,70.035c-11.047,0 -20.035,-8.961 -20.035,-19.976c0,-11.014 8.987,-19.975 20.035,-19.975c5.734,0 11.204,2.457 15.007,6.74c0.287,0.323 0.564,0.657 0.831,1c0.169,0.218 0.13,0.532 -0.087,0.701c-0.218,0.171 -0.532,0.13 -0.702,-0.088c-0.253,-0.325 -0.516,-0.642 -0.789,-0.949c-3.614,-4.07 -8.811,-6.404 -14.259,-6.404c-10.496,0 -19.035,8.512 -19.035,18.975c0,10.463 8.538,18.976 19.034,18.976c10.496,0 19.035,-8.513 19.035,-18.976c0,-0.955 -0.072,-1.912 -0.213,-2.846c-0.041,-0.273 0.147,-0.528 0.42,-0.569c0.275,-0.038 0.528,0.147 0.569,0.419c0.149,0.983 0.224,1.991 0.224,2.996c0,11.015 -8.988,19.976 -20.035,19.976z"></path></g><g><path d="M36.5,73.5c0,0 1.567,0 3.5,0c1.933,0 3.5,-1.567 3.5,-3.5c0,-1.781 -1.335,-3.234 -3.055,-3.455c0.028,-0.179 0.055,-0.358 0.055,-0.545c0,-1.933 -1.567,-3.5 -3.5,-3.5c-1.032,0 -1.95,0.455 -2.59,1.165c-0.384,-1.808 -1.987,-3.165 -3.91,-3.165c-2.209,0 -4,1.791 -4,4c0,0.191 0.03,0.374 0.056,0.558c-0.428,-0.344 -0.964,-0.558 -1.556,-0.558c-1.228,0 -2.245,0.887 -2.455,2.055c-0.179,-0.028 -0.358,-0.055 -0.545,-0.055c-1.933,0 -3.5,1.567 -3.5,3.5c0,1.933 1.567,3.5 3.5,3.5c1.933,0 7.5,0 7.5,0v0.5h7z" fill="#fdfcef"></path><path d="M38.25,69c-0.138,0 -0.25,-0.112 -0.25,-0.25c0,-1.223 0.995,-2.218 2.218,-2.218c0.034,0.009 0.737,-0.001 1.244,0.136c0.133,0.036 0.212,0.173 0.176,0.306c-0.036,0.134 -0.173,0.213 -0.306,0.176c-0.444,-0.12 -1.1,-0.12 -1.113,-0.118c-0.948,0 -1.719,0.771 -1.719,1.718c0,0.138 -0.112,0.25 -0.25,0.25zM31.5,73c-0.27614,0 -0.5,0.22386 -0.5,0.5c0,0.27614 0.22386,0.5 0.5,0.5c0.27614,0 0.5,-0.22386 0.5,-0.5c0,-0.27614 -0.22386,-0.5 -0.5,-0.5z" fill="#472b29"></path><path d="M40,74h-3.5c-0.276,0 -0.5,-0.224 -0.5,-0.5c0,-0.276 0.224,-0.5 0.5,-0.5h3.5c1.654,0 3,-1.346 3,-3c0,-1.496 -1.125,-2.768 -2.618,-2.959c-0.134,-0.018 -0.255,-0.088 -0.336,-0.196c-0.081,-0.108 -0.115,-0.244 -0.094,-0.377c0.023,-0.154 0.048,-0.308 0.048,-0.468c0,-1.654 -1.346,-3 -3,-3c-0.85,0 -1.638,0.355 -2.219,1c-0.125,0.139 -0.321,0.198 -0.5,0.148c-0.182,-0.049 -0.321,-0.195 -0.36,-0.379c-0.341,-1.604 -1.78,-2.769 -3.421,-2.769c-1.93,0 -3.5,1.57 -3.5,3.5c0,0.143 0.021,0.28 0.041,0.418c0.029,0.203 -0.063,0.438 -0.242,0.54c-0.179,0.102 -0.396,0.118 -0.556,-0.01c-0.365,-0.293 -0.794,-0.448 -1.243,-0.448c-0.966,0 -1.792,0.691 -1.963,1.644c-0.048,0.267 -0.296,0.446 -0.569,0.405c-0.154,-0.024 -0.308,-0.049 -0.468,-0.049c-1.654,0 -3,1.346 -3,3c0,1.654 1.346,3 3,3h7.5c0.276,0 0.5,0.224 0.5,0.5c0,0.276 -0.224,0.5 -0.5,0.5h-7.5c-2.206,0 -4,-1.794 -4,-4c0,-2.206 1.794,-4 4,-4c0.059,0 0.116,0.002 0.174,0.006c0.414,-1.186 1.537,-2.006 2.826,-2.006c0.349,0 0.689,0.061 1.011,0.18c0.165,-2.333 2.115,-4.18 4.489,-4.18c1.831,0 3.466,1.127 4.153,2.774c0.68,-0.498 1.502,-0.774 2.347,-0.774c2.206,0 4,1.794 4,4c0,0.048 -0.001,0.095 -0.004,0.142c1.743,0.448 3.004,2.027 3.004,3.858c0,2.206 -1.794,4 -4,4z" fill="#472b29"></path><path d="M34.5,73c-0.159,0 -0.841,0 -1,0c-0.276,0 -0.5,0.224 -0.5,0.5c0,0.276 0.224,0.5 0.5,0.5c0.159,0 0.841,0 1,0c0.276,0 0.5,-0.224 0.5,-0.5c0,-0.276 -0.224,-0.5 -0.5,-0.5z" fill="#472b29"></path></g><g><path d="M50.798,57.788l-4.001,3.695c0,0 -0.312,0.24 -0.655,0.09l0.766,-6.864z" fill="#b5cfe4"></path><path d="M46.375,61.871c-0.107,0 -0.22,-0.021 -0.333,-0.07l-0.168,-0.073l0.837,-7.495l4.472,3.541l-4.216,3.893c-0.125,0.095 -0.343,0.204 -0.592,0.204zM47.106,55.184l-0.69,6.187c0.128,-0.013 0.227,-0.085 0.228,-0.086l3.77,-3.481z" fill="#472b29"></path><path d="M63.72,39.438l-4.384,22.387c0,0 -0.613,1.553 -2.299,0.807l-10.117,-7.856l-3.679,-1.801l-6.193,-2.111c0,0 -0.951,-0.341 -1.043,-1.086c-0.092,-0.745 1.073,-1.149 1.073,-1.149l24.62,-9.781c-0.002,-0.001 2.022,-0.901 2.022,0.59z" fill="#ffffff"></path><path d="M57.899,63.085c-0.303,0 -0.625,-0.075 -0.963,-0.225l-10.169,-7.887l-3.636,-1.773l-6.164,-2.1c-0.048,-0.017 -1.101,-0.404 -1.21,-1.292c-0.116,-0.936 1.183,-1.396 1.238,-1.416l24.609,-9.776l0.002,0.006c0.323,-0.18 1.147,-0.374 1.634,-0.247c0.272,0.073 0.729,0.309 0.729,1.063l-0.005,0.048l-4.384,22.387c-0.024,0.074 -0.314,0.792 -1.037,1.088c-0.203,0.082 -0.418,0.124 -0.644,0.124zM61.919,39.027v0.002l-0.129,0.052l-24.62,9.78c-0.02,0.007 -0.981,0.359 -0.917,0.887c0.072,0.581 0.871,0.878 0.879,0.881l6.188,2.11l3.708,1.813l10.161,7.883c0.407,0.173 0.815,0.205 1.16,0.064c0.524,-0.213 0.751,-0.762 0.754,-0.768l4.366,-22.317c-0.006,-0.361 -0.157,-0.459 -0.208,-0.491c-0.334,-0.217 -1.027,-0.015 -1.342,0.104z" fill="#472b29"></path><g><path d="M46.141,61.572c0,0 -0.295,-0.028 -0.664,-1.208c-0.368,-1.18 -2.238,-7.39 -2.238,-7.39l14.87,-9.564c0,0 0.858,-0.528 0.828,0c0,0 0.153,0.093 -0.307,0.528c-0.46,0.435 -11.682,10.65 -11.682,10.65z" fill="#d2e5f1"></path><path d="M46.361,61.845l-0.244,-0.023c-0.21,-0.021 -0.533,-0.276 -0.878,-1.384c-0.368,-1.179 -2.239,-7.391 -2.239,-7.391l-0.055,-0.181l0.159,-0.102l14.87,-9.564c0.205,-0.126 0.705,-0.394 1.01,-0.212c0.07,0.042 0.177,0.135 0.2,0.323l0.026,0.121c0.02,0.19 -0.106,0.402 -0.407,0.688c-0.442,0.419 -10.585,9.652 -11.616,10.591zM43.532,53.083c0.31,1.028 1.853,6.147 2.184,7.206c0.09,0.288 0.174,0.499 0.246,0.652l0.749,-6.475l0.069,-0.063c0.112,-0.103 11.226,-10.219 11.678,-10.647c0.125,-0.118 0.19,-0.198 0.223,-0.247l0.004,-0.08c-0.106,0.021 -0.295,0.101 -0.446,0.193z" fill="#472b29"></path></g></g><g fill="#472b29"><path d="M57.898,63.335c-0.337,0 -0.693,-0.082 -1.064,-0.246l-0.091,-0.052l-6.111,-4.423l-3.496,3.235c-0.088,0.07 -0.569,0.421 -1.143,0.202c-0.563,-0.158 -0.883,-1.184 -0.995,-1.54c-0.319,-1.022 -1.769,-5.832 -2.148,-7.091l-0.017,-0.056l-5.948,-2.027c-0.058,-0.021 -1.25,-0.46 -1.377,-1.499c-0.138,-1.114 1.247,-1.628 1.405,-1.683l24.598,-9.772l0.003,0.008c0.445,-0.237 1.316,-0.385 1.79,-0.258c0.582,0.156 0.915,0.631 0.915,1.304l-4.392,22.483c-0.06,0.174 -0.382,0.94 -1.188,1.271c-0.235,0.096 -0.482,0.144 -0.741,0.144zM57.285,62.194c0.375,0.157 0.7,0.181 0.967,0.074c0.424,-0.17 0.618,-0.627 0.62,-0.632l4.357,-22.295c-0.009,-0.016 -0.025,-0.159 -0.102,-0.208c-0.184,-0.121 -0.667,-0.031 -1.03,0.094l-24.834,9.866c-0.301,0.106 -0.789,0.397 -0.761,0.622c0.043,0.354 0.545,0.615 0.717,0.679l6.405,2.184l0.083,0.221c0,0.001 0.038,0.121 0.102,0.333c0.379,1.258 1.827,6.061 2.146,7.083c0.195,0.625 0.347,0.843 0.398,0.903c0.061,0.018 0.138,-0.031 0.139,-0.032l4.063,-3.763z"></path></g></g></g></svg>